<?xml version="1.0" encoding="UTF-8"?>
<svg width="30px" height="43px" viewBox="0 0 30 43" version="1.1" xmlns="http://www.w3.org/2000/svg" xmlns:xlink="http://www.w3.org/1999/xlink">
    <!-- Generator: Sketch 45.1 (43504) - http://www.bohemiancoding.com/sketch -->
    <title>Group 5 Copy</title>
    <desc>Created with Sketch.</desc>
    <defs></defs>
    <g id="Page-1" stroke="none" stroke-width="1" fill="none" fill-rule="evenodd">
        <g id="Group-5-Copy">
            <polygon id="Fill-1" fill="#005EB3" points="10.9930728 8 0 37.6265655 8.76560813 34.2262721 13.0066786 43 24 13.3733689"></polygon>
            <polygon id="Fill-2" fill="#0072D9" points="19.0069272 8 30 37.6265655 21.2392396 34.2262721 16.9930728 43 6 13.3733689"></polygon>
            <path d="M15.0920249,30 C-0.0547038697,25.1729823 1.01644637,6.69632646 1.01644637,6.69632646 C7.11301747,0.786286708 15.0001319,0 15.0001319,0 C15.0001319,0 22.8871826,0.786286708 28.9837537,6.69632646 C28.9837537,6.69632646 30.0499298,25.1780515 14.9081751,30 L15.0920249,30 Z" id="Fill-3" fill="#E0F0F8"></path>
            <path d="M14.9974132,29 L14.752151,28.9021816 C4.07806824,24.6572886 3.06137944,11.9170715 3.00523737,8.10988201 L3,7.80071409 L3.22999726,7.59470946 C7.91029138,3.35986233 13.3420206,2.25230575 14.8953484,2.01532638 L14.9974132,2 L15.0996697,2.01532638 C16.6632806,2.26260921 22.1254122,3.3961176 26.7700027,7.58942895 L27,7.79569115 L26.9947626,8.10460149 C26.9693422,9.77388934 26.7597835,13.1172304 25.671496,16.6924635 C23.8217457,22.7819962 20.3113655,26.8877282 15.247849,28.8971587 L14.9974132,29 Z M4.35922568,8.40340157 C4.46652793,12.2981704 5.60067436,23.6113596 14.9974132,27.5369744 C19.5296558,25.6513784 22.6822981,21.8751637 24.3785678,16.3010611 C25.354635,13.0915361 25.5846323,10.0829929 25.6305551,8.40340157 C21.3230724,4.64277077 16.2236608,3.58653826 14.9871301,3.38046924 C13.7556452,3.57617041 8.68695527,4.60149257 4.35922568,8.40340157 Z" id="Fill-4" fill="#A0D0E7"></path>
            <path d="M14.9999065,21 C11.1383235,21 8,17.8617389 8,13.9999065 C8,10.1383235 11.1383235,7 14.9999065,7 C18.8565625,7 22,10.1383235 22,13.9999065 C22,17.8617389 18.8565625,21 14.9999065,21 Z M14.9999065,7.54888387 C11.4425452,7.54888387 8.54376985,10.4426076 8.54376985,14.0050205 C8.54376985,17.5623193 11.4374312,20.4610947 14.9999065,20.4610947 C18.5572053,20.4610947 21.4559807,17.5674333 21.4559807,14.0050205 C21.4511161,10.4426076 18.5572053,7.54888387 14.9999065,7.54888387 Z" id="Fill-5" fill="#A0D0E7"></path>
            <text id="53" font-family="PingFangSC-Regular, PingFang SC" font-size="8" font-weight="normal" fill="#A0D0E7">
                <tspan x="10" y="17">53</tspan>
            </text>
        </g>
    </g>
</svg>