<?xml version="1.0" encoding="UTF-8"?>
<svg width="21px" height="20px" viewBox="0 0 21 20" version="1.1" xmlns="http://www.w3.org/2000/svg" xmlns:xlink="http://www.w3.org/1999/xlink">
    <!-- Generator: Sketch 45.1 (43504) - http://www.bohemiancoding.com/sketch -->
    <title>Group 6 Copy</title>
    <desc>Created with Sketch.</desc>
    <defs></defs>
    <g id="Page-1" stroke="none" stroke-width="1" fill="none" fill-rule="evenodd">
        <g id="Group-6-Copy">
            <rect id="Rectangle-2" fill="#FFFFFF" x="3" y="0" width="18" height="20" rx="4"></rect>
            <rect id="Rectangle-4" stroke="#2C3C46" x="0.5" y="3.5" width="4" height="3" rx="1"></rect>
            <rect id="Rectangle-4-Copy" stroke="#2C3C46" x="0.5" y="8.5" width="4" height="3" rx="1"></rect>
            <rect id="Rectangle-4-Copy-3" stroke="#2C3C46" x="0.5" y="13.5" width="4" height="3" rx="1"></rect>
            <rect id="Rectangle-4" stroke="#FFFFFF" x="1.5" y="4.5" width="2" height="1" rx="0.5"></rect>
            <rect id="Rectangle-4-Copy-2" stroke="#FFFFFF" x="1.5" y="9.5" width="2" height="1" rx="0.5"></rect>
            <rect id="Rectangle-4-Copy-4" stroke="#FFFFFF" x="1.5" y="14.5" width="2" height="1" rx="0.5"></rect>
            <g id="Group-2" transform="translate(8.000000, 5.000000)" fill="#2C3C46">
                <rect id="Rectangle-33" x="0" y="3" width="9" height="1" rx="0.5"></rect>
                <rect id="Rectangle-33-Copy" x="0" y="6" width="9" height="1" rx="0.5"></rect>
                <rect id="Rectangle-33-Copy" transform="translate(4.500000, 6.500000) rotate(-90.000000) translate(-4.500000, -6.500000) " x="1" y="6" width="7" height="1" rx="0.5"></rect>
                <rect id="Rectangle-33-Copy-2" transform="translate(2.277858, 1.933159) rotate(-142.000000) translate(-2.277858, -1.933159) " x="-0.222142378" y="1.43315907" width="5" height="1" rx="0.5"></rect>
                <rect id="Rectangle-33-Copy-3" transform="translate(6.277858, 1.933159) scale(-1, 1) rotate(-142.000000) translate(-6.277858, -1.933159) " x="3.77785762" y="1.43315907" width="5" height="1" rx="0.5"></rect>
            </g>
        </g>
    </g>
</svg>