<?xml version="1.0" encoding="UTF-8"?>
<svg width="42px" height="42px" viewBox="0 0 42 42" version="1.1" xmlns="http://www.w3.org/2000/svg" xmlns:xlink="http://www.w3.org/1999/xlink">
    <!-- Generator: Sketch 45.1 (43504) - http://www.bohemiancoding.com/sketch -->
    <title>头像-3 copy</title>
    <desc>Created with Sketch.</desc>
    <defs>
        <polygon id="path-1" points="0.00307692308 0.0264871795 0.00307692308 41.9999359 41.9715385 41.9999359 41.9715385 0.0264871795"></polygon>
    </defs>
    <g id="Page-1" stroke="none" stroke-width="1" fill="none" fill-rule="evenodd">
        <g id="头像-3-copy">
            <g id="Group-3">
                <mask id="mask-2" fill="white">
                    <use xlink:href="#path-1"></use>
                </mask>
                <g id="Clip-2"></g>
                <path d="M0,21.0133333 C-0.00041025641,28.5109231 3.99938462,35.4393846 10.4925641,39.1882051 C16.9857949,42.9371795 24.9857949,42.9371795 31.4789744,39.1882051 C37.9721538,35.4393846 41.9719487,28.5109231 41.9715385,21.0133333 C41.9719487,13.5155385 37.9721538,6.58723077 31.4789744,2.83825641 C24.9857949,-0.910769231 16.9857949,-0.910769231 10.4925641,2.83825641 C3.99938462,6.58723077 -0.00041025641,13.5155385 0,21.0133333 Z" id="Fill-1" fill="#EDEDED" mask="url(#mask-2)"></path>
            </g>
            <path d="M30.7099908,34.8470208 C29.7315578,34.4688077 28.5809773,34.1484653 27.3045713,33.9003977 C26.5901623,33.7613257 25.836845,33.6446208 25.0501413,33.5542899 C23.8989984,33.861141 22.5037714,34.041042 20.9998977,34.041042 C19.494388,34.041042 18.0977805,33.860786 16.9458196,33.5530726 C16.0982226,33.650352 15.2895339,33.7781644 14.5264001,33.9312857 C14.5941445,33.9544644 14.6634227,33.9736869 14.732343,33.9942789 C14.7552994,34.0012275 14.7780512,34.008176 14.8008542,34.0154796 C14.7780512,34.008176 14.7552994,34.0012275 14.732343,33.9942789 C14.6634227,33.9736869 14.5941445,33.9544644 14.5264001,33.9312857 C13.3221355,34.1732163 12.2330618,34.4795095 11.2995701,34.8387029 C11.2814197,34.7864114 9.03435208,36.0284231 7.74301676,37.3057354 C11.3513114,40.2387251 15.964779,42 20.9935068,42 C26.0281653,42 30.6466435,40.2349212 34.2569832,37.2957944 C32.9663637,36.0260393 30.7289592,34.7927513 30.7099908,34.8470208 Z" id="Fill-4" fill="#1296DB"></path>
            <path d="M30.2076019,18.2745587 C29.9411819,18.1738382 29.6455525,18.2221697 29.353869,18.384473 C29.3796962,16.6534259 29.1238838,15.0868907 28.6142576,13.8435754 L13.3856311,13.8435754 C12.8559682,15.136044 12.598721,16.7770538 12.6489918,18.5901257 C12.3563347,18.4264356 12.0596804,18.3774878 11.7924405,18.4787733 C11.034791,18.7654749 10.8007575,20.1300041 11.2695932,21.5261722 C11.7383776,22.9219807 12.7324691,23.8212233 13.4899136,23.5349326 C14.1717212,25.7521191 15.1837995,27.6629326 16.3459728,29.0920235 C16.5501821,29.3430287 16.758952,29.5795498 16.9713091,29.7998406 L16.9713091,33.5248045 C16.9617264,33.5257804 16.9525024,33.5270131 16.9429197,33.5281944 C18.0977138,33.8396011 19.4975077,34.0223464 21.0064524,34.0223464 C22.5137572,34.0223464 23.9119626,33.8399606 25.0659368,33.5292216 C25.0535356,33.5277835 25.0411345,33.5261913 25.0287333,33.5248045 L25.0287333,29.8014842 C25.2425252,29.5797553 25.4526788,29.341796 25.6580666,29.0891986 C26.8178827,27.6627271 27.8279624,25.7563308 28.5091552,23.5449481 C28.5293455,23.4793591 30.3122943,23.5449481 30.7302955,21.3219576 C31.1992849,19.9257382 30.9652514,18.5614658 30.2076019,18.2745587 Z" id="Fill-5" fill="#EED5A1"></path>
            <path d="M28.5638549,13.9337188 C28.5638549,13.9337188 28.4717925,15.86509 29.303069,18.6435556 C29.303069,18.6435556 32.934281,8.12438562 26.1095246,8.12438562 C26.1095246,8.12438562 8.43519087,1.9979921 12.6025368,18.8568359 C12.6025368,18.8568359 12.7195999,19.3264508 12.9267274,19.7094972 C15.7266118,15.5810228 25.0012413,16.9184677 28.5638549,13.9337188 Z" id="Fill-6" fill="#5C4948"></path>
            <polygon id="Fill-7" fill="#B9C9C2" points="13.1396648 38.9497207 16.8938547 38.9497207 16.8938547 38.2458101 13.1396648 38.2458101"></polygon>
            <path d="M20.8826816,34.0377102 C20.8826816,34.0377102 21.7350445,35.4779449 23.8544076,35.8994413 C23.8544076,35.8994413 24.9453517,34.4444182 24.8675349,33.5530726 L20.8826816,34.0377102 Z" id="Fill-8" fill="#B9C9C2"></path>
            <path d="M20.8826816,34.0376597 C20.8826816,34.0376597 20.0303185,35.4778945 17.9111562,35.8994413 C17.9111562,35.8994413 16.8200107,34.4444182 16.8978275,33.5530726 L20.8826816,34.0376597 Z" id="Fill-9" fill="#B9C9C2"></path>
            <path d="M20.6480447,35.0781179 C20.6480447,35.2039039 20.7150253,35.3201048 20.823857,35.3829978 C20.9329249,35.4458908 21.0670751,35.4458908 21.1759068,35.3829978 C21.2849747,35.3201048 21.3519553,35.2039039 21.3519553,35.0781179 C21.3519553,34.9525207 21.2849747,34.8363197 21.1759068,34.7734267 C21.0670751,34.7105337 20.9329249,34.7105337 20.823857,34.7734267 C20.7150253,34.8363197 20.6480447,34.9525207 20.6480447,35.0781179 Z" id="Fill-10" fill="#56A57E"></path>
            <path d="M20.6480447,36.4860571 C20.6480447,36.6116796 20.7150253,36.7279039 20.824046,36.7908096 C20.9329249,36.8537152 21.0670751,36.8537152 21.1759068,36.7908096 C21.2847857,36.7279039 21.3519553,36.6116796 21.3519553,36.4860571 C21.3519553,36.2916257 21.1943761,36.1340782 20.9999055,36.1340782 C20.8056239,36.1340782 20.6480447,36.2916257 20.6480447,36.4860571 Z" id="Fill-11" fill="#56A57E"></path>
            <path d="M20.6480447,37.8938547 C20.6480447,38.0196576 20.7150253,38.1357325 20.824046,38.198634 C20.9329249,38.2615354 21.0670751,38.2615354 21.1759068,38.198634 C21.2847857,38.1357325 21.3519553,38.0196576 21.3519553,37.8938547 C21.3519553,37.6996253 21.1943761,37.5418994 20.9999055,37.5418994 C20.8056239,37.5418994 20.6480447,37.6996253 20.6480447,37.8938547 Z" id="Fill-12" fill="#56A57E"></path>
        </g>
    </g>
</svg>