<?xml version="1.0" encoding="UTF-8"?>
<svg width="28px" height="25px" viewBox="0 0 28 25" version="1.1" xmlns="http://www.w3.org/2000/svg" xmlns:xlink="http://www.w3.org/1999/xlink">
    <!-- Generator: Sketch 45.1 (43504) - http://www.bohemiancoding.com/sketch -->
    <title>Group 1121 Copy</title>
    <desc>Created with Sketch.</desc>
    <defs></defs>
    <g id="Page-1" stroke="none" stroke-width="1" fill="none" fill-rule="evenodd">
        <g id="Group-1121-Copy" fill="#FFFFFF">
            <path d="M24.9296119,9.64368421 C24.7825075,9.57131579 24.6281791,9.52460526 24.468597,9.49894737 C24.2564776,8.17592105 23.7987463,6.94105263 23.2024478,5.91407895 C22.0242985,3.88052632 20.1414925,2.65026316 18.9889552,2.04302632 C23.9740896,1.95092105 27.6260896,3.55486842 27.6260896,3.55486842 C27.6260896,3.55486842 20.3779104,-1.36618421 11.2797612,1.47197368 C1.4119403,4.55092105 -1.25170149,13.7127632 0.847820896,18.9706579 C2.83570149,23.9548684 6.45814925,25.6173684 12.4940299,24.5778947 C18.2475224,23.5890789 20.6668657,19.8357895 20.6668657,19.8357895 L17.8830448,21.4963158 C17.8830448,21.4963158 9.13229851,25.6825 4.82423881,20.1528947 C0.920059701,15.1417105 4.488,6.27855263 11.8511045,3.42131579 C12.702209,3.09105263 17.8541493,0.978552632 21.3130746,6.66078947 C22.0197015,7.82197368 22.3618507,9.03052632 22.4728358,10.2028947 C22.0637015,10.5588158 21.6952836,11.0292105 21.4240597,11.5923684 C20.7548657,12.9778947 20.8638806,14.4614474 21.6092537,15.2226316 C20.9696119,16.6969737 20.1099701,17.8496053 19.4237015,18.4226316 C17.6328358,19.9180263 15.0007164,20.6028947 15.0007164,20.6028947 C15.0007164,20.6028947 18.7361194,20.6357895 21.858806,17.5752632 C22.4833433,16.9647368 22.9831045,16.3167105 23.377791,15.6456579 C24.2210149,15.4107895 25.0648955,14.6739474 25.577791,13.6101316 C26.3665075,11.9772368 26.0775522,10.2009211 24.9296119,9.64368421" id="Fill-1113"></path>
            <path d="M11.9018687,9.62605263 C11.4631821,10.2839474 10.6232418,10.4918421 10.0249731,10.0918421 C9.42670448,9.69052632 9.29930149,8.83263158 9.73733134,8.17473684 C10.1753612,7.51684211 11.0159582,7.30894737 11.6142269,7.70894737 C12.2124955,8.11026316 12.3412119,8.96815789 11.9018687,9.62605263" id="Fill-1114"></path>
            <path d="M16.4249373,10.9111842 C15.9849373,11.5690789 15.1443403,11.7782895 14.5467284,11.3769737 C13.9484597,10.9763158 13.8190866,10.1184211 14.2590866,9.46052632 C14.6977731,8.80263158 15.5390269,8.59473684 16.1353254,8.99539474 C16.7329373,9.39539474 16.8623104,10.2532895 16.4249373,10.9111842" id="Fill-1115"></path>
            <path d="M16.1629731,17.3283553 C15.0504955,18.2066447 13.2583164,19.3573026 11.1568239,19.6803289 C10.172406,19.8316447 9.1216597,19.8007237 8.04004776,19.4776974 C7.0937194,19.1941447 6.43043582,18.6888816 5.9694209,18.0783553 C4.9416597,16.7336184 4.90291343,14.8796711 4.98434627,13.8145395 C5.02703284,13.2974342 5.2214209,13.1967763 5.50446567,13.5500658 C6.10864478,14.2967763 7.42733134,15.5948026 9.75407761,16.3836184 C11.9521075,17.1303289 14.4686448,16.8579605 15.985003,16.5704605 C16.8341373,16.4073026 16.927391,16.7217763 16.1629731,17.3283553" id="Fill-1119"></path>
        </g>
    </g>
</svg>