<?xml version="1.0" encoding="UTF-8"?>
<svg width="20px" height="20px" viewBox="0 0 20 20" version="1.1" xmlns="http://www.w3.org/2000/svg" xmlns:xlink="http://www.w3.org/1999/xlink">
    <!-- Generator: Sketch 45.1 (43504) - http://www.bohemiancoding.com/sketch -->
    <title>Group 3 Copy</title>
    <desc>Created with Sketch.</desc>
    <defs></defs>
    <g id="Page-1" stroke="none" stroke-width="1" fill="none" fill-rule="evenodd">
        <g id="Group-3-Copy">
            <rect id="Rectangle-34" fill="#FFFFFF" x="6" y="0" width="8" height="8" rx="2"></rect>
            <rect id="Rectangle-34-Copy" fill="#FFFFFF" x="0" y="14" width="6" height="6" rx="2"></rect>
            <rect id="Rectangle-34-Copy-2" fill="#FFFFFF" x="7" y="14" width="6" height="6" rx="2"></rect>
            <rect id="Rectangle-34-Copy-3" fill="#FFFFFF" x="14" y="14" width="6" height="6" rx="2"></rect>
            <rect id="Rectangle-35" fill="#FFFFFF" x="9.5" y="7" width="1" height="8"></rect>
            <path d="M16.6645089,6 L15,6 L15,6 C13.8954305,6 13,6.8954305 13,8 L13,14.8001002" id="Path-5-Copy" stroke="#FFFFFF" transform="translate(14.832254, 10.400050) scale(-1, 1) translate(-14.832254, -10.400050) "></path>
            <path d="M6.66450891,6 L5,6 L5,6 C3.8954305,6 3,6.8954305 3,8 L3,14.8001002" id="Path-5" stroke="#FFFFFF"></path>
        </g>
    </g>
</svg>