<?xml version="1.0" encoding="UTF-8"?>
<svg width="20px" height="20px" viewBox="0 0 20 20" version="1.1" xmlns="http://www.w3.org/2000/svg" xmlns:xlink="http://www.w3.org/1999/xlink">
    <!-- Generator: Sketch 45.1 (43504) - http://www.bohemiancoding.com/sketch -->
    <title>赚钱 copy</title>
    <desc>Created with Sketch.</desc>
    <defs>
        <polygon id="path-1" points="0 2.89821561e-15 0 20 20 20 20 0"></polygon>
    </defs>
    <g id="Page-1" stroke="none" stroke-width="1" fill="none" fill-rule="evenodd">
        <g id="赚钱-copy">
            <mask id="mask-2" fill="white">
                <use xlink:href="#path-1"></use>
            </mask>
            <g id="Clip-2"></g>
            <path d="M19.6499982,12.3463406 C18.8978834,9.64785835 17.2856972,7.56271152 14.7670625,6.14685723 C14.4772855,5.98395713 14.1721733,5.84772267 13.8731899,5.69963399 C13.876188,5.69665131 13.876188,5.68777975 13.8823963,5.6818144 C13.9317449,5.63442296 13.9841712,5.5899887 14.0334136,5.54259727 C14.5511757,5.06580217 14.9582749,4.51482252 15.2018341,3.86623028 C15.312603,3.56987445 15.3743949,3.25898763 15.4607018,2.95386223 C15.657937,2.2460498 15.4668306,1.63569702 14.8966158,1.16787545 C14.1259555,0.536924342 13.2474181,0.462816267 12.3225302,0.833076222 C12.257873,0.859767366 12.2147593,0.877586955 12.1530736,0.818341283 C10.9632157,-0.26284124 9.0519134,-0.27466998 7.85271641,0.794632817 C7.79737172,0.844828483 7.7572561,0.856759195 7.68325976,0.824204667 C7.19614154,0.608024247 6.68750627,0.563513514 6.16650733,0.667167947 C5.1769622,0.862648072 4.36019017,1.67136169 4.50507865,2.77612521 C4.6313951,3.73578273 5.01673851,4.56509467 5.68262594,5.27899991 C5.81828147,5.42719057 5.96616802,5.56630573 6.1110565,5.7144709 C6.0741512,5.73221401 6.03706017,5.74993162 6.00004873,5.76476853 C2.59688056,7.26059428 0.297236806,10.5098523 0.02892381,14.2063335 C-0.0449664002,15.2282449 0.0165866654,16.2412847 0.284793536,17.2423683 C0.704123795,18.8211482 2.14987795,20.0030024 3.88540909,19.9999943 C7.97303674,19.9911482 12.0636359,19.9999943 16.1512636,19.9940289 C17.4644664,19.9910462 18.4755551,19.4253062 19.2092305,18.3945487 C19.5821041,17.8703367 19.7578752,17.2748463 19.8565459,16.6499625 C20.0938701,15.2046384 20.044548,13.7649737 19.6499982,12.3463406 Z M12.7540915,16.0192154 L11.0956609,16.0192154 C11.0741173,16.0192154 11.0586495,16.036933 11.0586495,16.0546761 L11.0586495,16.8187515 L11.0495492,16.8187515 C11.0618863,16.8811073 11.0710927,16.9462164 11.0710927,17.0113509 C11.0710927,17.5593479 10.5993362,18.0065712 10.0198884,18.0065712 C9.44033447,18.0065712 8.9686841,17.5622286 8.9686841,17.0113509 C8.9686841,16.9432337 8.97802319,16.8811073 8.9903338,16.8187515 L8.9686841,16.8187515 L8.9686841,16.0546761 C8.9686841,16.0339503 8.95024471,16.0192154 8.9316992,16.0192154 L7.28560573,16.0192154 C6.8231618,16.0192154 6.44394716,15.6637159 6.44394716,15.222356 C6.44394716,14.7810216 6.82016374,14.4254966 7.28560573,14.4254966 L8.9316992,14.4254966 C8.9533489,14.4254966 8.9686841,14.407779 8.9686841,14.3900614 L8.9686841,13.6701653 C8.9686841,13.649465 8.95024471,13.6347301 8.9316992,13.6347301 L7.28860379,13.6347301 L7.28860379,13.6318493 L7.28560573,13.6318493 C6.8231618,13.6318493 6.44394716,13.2763243 6.44394716,12.83499 C6.44394716,12.3965363 6.82016374,12.0381306 7.28560573,12.0381306 L8.79301908,12.0381306 C8.80846041,12.0381306 8.82390174,12.029361 8.8268998,12.0146261 C8.83923694,11.9818676 8.85467827,11.9522957 8.87314419,11.9227239 C8.88245675,11.9079635 8.87935256,11.8901439 8.86701542,11.8782896 L7.00503519,10.1158074 C6.77081516,9.89661879 6.84791568,9.46423245 7.17459796,9.15622634 C7.50135984,8.84811826 7.95770153,8.77403567 8.18889697,8.99620694 L10.0044471,10.7171866 C10.0198884,10.7320235 10.0445627,10.7320235 10.060004,10.7171866 L11.7400843,9.02289809 C12.0050809,8.7474465 12.5446254,8.81556373 12.8744118,9.12963717 C13.2011737,9.44360864 13.3646342,9.72793178 13.0408439,10.0743813 L11.0679885,11.9849522 C11.0587556,11.9938238 11.0556514,12.0026699 11.0556514,12.0146261 C11.0587556,12.0323437 11.0741173,12.0471806 11.092769,12.0471806 L12.7480689,12.0471806 L12.7480689,12.0500868 C13.2104067,12.0530695 13.5835191,12.408467 13.5835191,12.8469207 C13.5835191,13.2852979 13.2104067,13.6405934 12.7480689,13.6405934 L11.095767,13.6405934 C11.0741173,13.6405934 11.0587556,13.658515 11.0587556,13.6762581 L11.0587556,14.3960267 C11.0587556,14.4167525 11.0773276,14.4315894 11.095767,14.4315894 L12.7541976,14.4315894 L12.7541976,14.4344701 C13.2165354,14.4374528 13.5895152,14.7929523 13.5895152,15.2312276 C13.5895152,15.6637159 13.2164293,16.0160288 12.7540915,16.0192154 Z" id="Fill-1" fill="#FFFFFF" mask="url(#mask-2)"></path>
        </g>
    </g>
</svg>