<?xml version="1.0" encoding="UTF-8"?>
<svg width="20px" height="20px" viewBox="0 0 20 20" version="1.1" xmlns="http://www.w3.org/2000/svg" xmlns:xlink="http://www.w3.org/1999/xlink">
    <!-- Generator: Sketch 45.1 (43504) - http://www.bohemiancoding.com/sketch -->
    <title>订单</title>
    <desc>Created with Sketch.</desc>
    <defs>
        <polygon id="path-1" points="0.00157068063 19.9999755 19.9786387 19.9999755 19.9786387 0.022797546 0.00157068063 0.022797546"></polygon>
    </defs>
    <g id="Page-1" stroke="none" stroke-width="1" fill="none" fill-rule="evenodd">
        <g id="订单">
            <path d="M15.1666793,3.75 C15.7192106,3.75 16.1666667,3.33008785 16.1666667,2.81254913 L16.1666667,0.937745663 C16.1666667,0.419838452 15.7192106,0 15.1666793,0 C14.6141227,0 14.1666667,0.419838452 14.1666667,0.937745663 L14.1666667,2.81254913 C14.1666667,3.33008785 14.6141227,3.75 15.1666793,3.75 Z" id="Fill-1" fill="#FFFFFF"></path>
            <g id="Group-5">
                <mask id="mask-2" fill="white">
                    <use xlink:href="#path-1"></use>
                </mask>
                <g id="Clip-3"></g>
                <path d="M4.82227749,3.76876074 C5.39327225,3.76876074 5.85570681,3.34930061 5.85570681,2.83231902 L5.85570681,0.959533742 C5.85570681,0.442184049 5.39327225,0.022797546 4.82227749,0.022797546 C4.25125654,0.022797546 3.78895288,0.442184049 3.78895288,0.959533742 L3.78895288,2.83231902 C3.78895288,3.34930061 4.25125654,3.76876074 4.82227749,3.76876074 Z" id="Fill-2" fill="#FFFFFF" mask="url(#mask-2)"></path>
                <path d="M18.9451047,1.8958773 L17.223089,1.8958773 L17.223089,2.83231902 C17.223089,3.86625767 16.297644,4.70520245 15.1562565,4.70520245 C14.0149476,4.70520245 13.0895288,3.86625767 13.0895288,2.83231902 L13.0895288,1.8958773 L11.9871728,1.8958773 C11.9871728,1.87401227 11.1306545,1.8958773 9.98926702,1.8958773 C8.84795812,1.8958773 7.99143979,1.90564417 7.99143979,1.8958773 L6.88900524,1.8958773 L6.88900524,2.83231902 C6.88900524,3.86625767 5.96429319,4.70520245 4.82227749,4.70520245 C3.68096859,4.70520245 2.75554974,3.86625767 2.75554974,2.83231902 L2.75554974,1.8958773 L1.03342932,1.8958773 C0.462408377,1.8958773 0,2.31536196 0,2.83231902 L0,19.0635337 C0,19.580589 0.462408377,19.9999755 1.03342932,19.9999755 L18.9452094,19.9999755 C19.5162304,19.9999755 19.9786387,19.580589 19.9786387,19.0635337 L19.9786387,2.83231902 C19.978534,2.31536196 19.5161257,1.8958773 18.9451047,1.8958773 Z M14.4671466,16.8785276 L5.51138743,16.8785276 C5.09918848,16.8785276 4.76492147,16.5651534 4.76492147,16.1789448 C4.76492147,15.7925399 5.09918848,15.4791656 5.51138743,15.4791656 L14.4671466,15.4791656 C14.8793455,15.4791656 15.2136126,15.7925399 15.2136126,16.1789448 C15.2136126,16.5651534 14.8793455,16.8785276 14.4671466,16.8785276 Z M14.4671466,13.2624294 L5.51138743,13.2624294 C5.09918848,13.2624294 4.76492147,12.9490798 4.76492147,12.5628712 C4.76492147,12.1764663 5.09918848,11.863092 5.51138743,11.863092 L14.4671466,11.863092 C14.8793455,11.863092 15.2136126,12.1764663 15.2136126,12.5628712 C15.2136126,12.9490798 14.8793455,13.2624294 14.4671466,13.2624294 Z M14.4671466,9.64635583 L5.51138743,9.64635583 C5.09918848,9.64635583 4.76492147,9.3329816 4.76492147,8.94677301 C4.76492147,8.5603681 5.09918848,8.2470184 5.51138743,8.2470184 L14.4671466,8.2470184 C14.8793455,8.2470184 15.2136126,8.5603681 15.2136126,8.94677301 C15.2136126,9.3329816 14.8793455,9.64635583 14.4671466,9.64635583 Z" id="Fill-4" fill="#FFFFFF" mask="url(#mask-2)"></path>
            </g>
        </g>
    </g>
</svg>