<?xml version="1.0" encoding="UTF-8"?>
<svg width="18px" height="20px" viewBox="0 0 18 20" version="1.1" xmlns="http://www.w3.org/2000/svg" xmlns:xlink="http://www.w3.org/1999/xlink">
    <!-- Generator: Sketch 45.1 (43504) - http://www.bohemiancoding.com/sketch -->
    <title>Group 98</title>
    <desc>Created with Sketch.</desc>
    <defs>
        <polygon id="path-1" points="0 2.77555408e-15 0 20 18 20 18 0"></polygon>
    </defs>
    <g id="Page-1" stroke="none" stroke-width="1" fill="none" fill-rule="evenodd">
        <g id="Group-98">
            <g id="产品-优化-copy">
                <mask id="mask-2" fill="white">
                    <use xlink:href="#path-1"></use>
                </mask>
                <g id="Clip-2"></g>
                <path d="M17.6394934,15.8493356 L10.6107208,19.8686244 C10.0700663,20.2035142 9.52941176,19.8686244 9.52941176,19.1986736 L9.52941176,9.82046348 C9.52941176,9.65306759 9.70966508,9.31807991 9.88981299,9.15061057 L16.9186119,5.13141964 C17.4593455,4.79643197 18,5.13141964 18,5.80127255 L18,15.3469765 C18,15.5144458 17.8197467,15.8493356 17.6394934,15.8493356 Z M0.360506633,15.8248836 L7.38927916,19.8678505 C7.9299337,20.2047131 8.47058824,19.8678505 8.47058824,19.1939529 L8.47058824,9.76049489 C8.47058824,9.59211285 8.29033492,9.25515174 8.11018701,9.08669581 L1.08138814,5.04382746 C0.720881502,4.8753469 0,5.21230802 0,5.71762654 L0,15.3195651 C0,15.488021 0.180253317,15.8248836 0.360506633,15.8248836 Z M9.26467494,0 L1.32357003,2.72001638 C0.970574695,2.88004211 0.970574695,3.36000234 1.32357003,3.52002807 L9.26467494,8 L9.61767028,8 L17.7352728,3.52002807 C18.0882424,3.36000234 18.0882424,2.88004211 17.7352728,2.72001638 L9.61767028,0 L9.26467494,0 Z" id="Fill-1" fill="#FFFFFF" mask="url(#mask-2)"></path>
            </g>
        </g>
    </g>
</svg>